<?xml version="1.0" encoding="utf-8"?>
<!-- Generator: Adobe Illustrator 23.0.2, SVG Export Plug-In . SVG Version: 6.00 Build 0)  -->
<svg version="1.1" id="Capa_1" xmlns="http://www.w3.org/2000/svg" xmlns:xlink="http://www.w3.org/1999/xlink" x="0px" y="0px"
	 viewBox="0 0 198.5 198.5" style="enable-background:new 0 0 198.5 198.5;" xml:space="preserve">
<style type="text/css">
	.st0{fill:#FDCC9B;}
	.st1{fill:#FCBC85;}
	.st2{fill:#FFFFFF;}
	.st3{fill:#F7945E;}
	.st4{fill:#1BBB99;}
</style>
<g>
	<g>
		<rect x="84.6" y="148.2" class="st0" width="29.4" height="32.9"/>
		<path class="st1" d="M84.6,152.1c0,0,12.4,7.9,29.4,6.1v-9.9H84.6V152.1z"/>
		<ellipse class="st1" cx="42.2" cy="97.2" rx="14.3" ry="16.4"/>
		<ellipse class="st1" cx="156.3" cy="97.2" rx="14.3" ry="16.4"/>
		<path class="st0" d="M156.3,65.9c0-24.1-17.6-41.7-57-41.7s-57,17.6-57,41.7s-4.1,87.6,57,87.6S156.3,90,156.3,65.9z"/>
		<g>
			<g>
				<ellipse cx="71.5" cy="93.3" rx="6.2" ry="6.8"/>
				<circle class="st2" cx="68.8" cy="90.3" r="1.8"/>
			</g>
			<path d="M61.6,76.5c2.9,1.5,7.6-5,18.3,0.6c2,1,3.1-8.7-8.4-8.7C61.6,68.4,59.8,75.6,61.6,76.5z"/>
			<g>
				<ellipse cx="127.8" cy="93.3" rx="6.2" ry="6.8"/>
				<circle class="st2" cx="125.1" cy="90.3" r="1.8"/>
			</g>
			<path d="M136.9,76.5c-2.9,1.5-7.6-5-18.3,0.6c-2,1-3.1-8.7,8.4-8.7C136.9,68.4,138.7,75.6,136.9,76.5z"/>
		</g>
		<path class="st1" d="M99.2,117c-6.1,0-9.8-4.6-9.8-2.4c0,2.2,1.8,6.4,9.8,6.4s9.8-4.2,9.8-6.4C109,112.5,105.3,117,99.2,117z"/>
		<path class="st1" d="M99.2,137.3c-2.1,0-3.4-1.6-3.4-0.8s0.6,2.2,3.4,2.2s3.4-1.4,3.4-2.2S101.4,137.3,99.2,137.3z"/>
		<path class="st3" d="M99.2,131.7c-9.7,0-15.5-3.9-15.5-2.9c0,1,2.8,4.9,15.5,4.9s15.5-3.9,15.5-4.9
			C114.7,127.8,108.9,131.7,99.2,131.7z"/>
	</g>
	<path class="st4" d="M99.2,161.5v37H27.8C27.8,183.5,65.4,161.5,99.2,161.5z"/>
	<path class="st4" d="M99.2,161.5v37h71.4C170.7,183.5,133.1,161.5,99.2,161.5z"/>
	<path d="M99.2,161.5c-7.2,0-14.6,1-21.7,2.7c0,0.1,7.9,10.2,21.7,10.2c12.8,0,21.2-8.7,22.5-10C114.3,162.5,106.7,161.5,99.2,161.5
		z"/>
	<path class="st0" d="M84.6,162.7c0,0,4.3,5.3,14.7,5.3s14.7-5.3,14.7-5.3S98.7,157.2,84.6,162.7z"/>
	<path d="M146.1,19c0,0-21.2-26.9-65.2-16.8C37,12.4,33.7,38.9,35,64.6c1.3,25.7,4.8,40.8,9,39c4.2-1.9,2-18.9,2.4-22.8
		s4.4-21.7,31.2-19c26.8,2.6,49.3-7.1,49.3-7.1s9.1,11.5,15,13.7c11.9,4.4,8,33.7,12.7,33.7S182.3,34.5,146.1,19z"/>
</g>
</svg>
