<?xml version="1.0" encoding="utf-8"?>
<!-- Generator: Adobe Illustrator 23.0.2, SVG Export Plug-In . SVG Version: 6.00 Build 0)  -->
<svg version="1.1" id="Capa_1" xmlns="http://www.w3.org/2000/svg" xmlns:xlink="http://www.w3.org/1999/xlink" x="0px" y="0px"
	 viewBox="0 0 512 512" style="enable-background:new 0 0 512 512;" xml:space="preserve">
<style type="text/css">
	.st0{fill:#1BBB99;}
	.st1{fill:#FAFAFA;}
</style>
<path class="st0" d="M508.3,85.8c-3-3.6-7.6-5.8-12.3-5.8H107.5c-5,0-9.7,2.3-12.7,6.2c-3,4-4,9.1-2.8,13.9l51.2,191.4
	c1.9,7,8.2,11.9,15.5,11.9c0.3,0,0.5,0,0.8,0L464.8,288c7.4-0.4,13.6-5.8,14.9-13.1l32-176C512.6,94.2,511.3,89.4,508.3,85.8z"/>
<g>
	<path class="st1" d="M400,240c-8.8,0-16-7.2-16-16v-64c0-8.8,7.2-16,16-16s16,7.2,16,16v64C416,232.8,408.8,240,400,240z"/>
	<path class="st1" d="M304,240c-8.8,0-16-7.2-16-16v-64c0-8.8,7.2-16,16-16s16,7.2,16,16v64C320,232.8,312.8,240,304,240z"/>
	<path class="st1" d="M208,240c-8.8,0-16-7.2-16-16v-64c0-8.8,7.2-16,16-16s16,7.2,16,16v64C224,232.8,216.8,240,208,240z"/>
</g>
<g>
	<circle cx="208" cy="448" r="48"/>
	<circle cx="400" cy="448" r="48"/>
	<path d="M432,368H176c-7.3,0-13.6-4.9-15.5-11.9L78.3,48H16C7.2,48,0,40.8,0,32s7.2-16,16-16h74.6c7.3,0,13.6,4.9,15.5,11.9
		L188.3,336H432c8.8,0,16,7.2,16,16S440.8,368,432,368z"/>
</g>
</svg>
