<?xml version="1.0" encoding="utf-8"?>
<!-- Generator: Adobe Illustrator 23.0.2, SVG Export Plug-In . SVG Version: 6.00 Build 0)  -->
<svg version="1.1" id="Capa_1" xmlns="http://www.w3.org/2000/svg" xmlns:xlink="http://www.w3.org/1999/xlink" x="0px" y="0px"
	 viewBox="0 0 512 512" style="enable-background:new 0 0 512 512;" xml:space="preserve">
<style type="text/css">
	.st0{fill:#1BBB99;}
	.st1{fill:#FFFFFF;}
</style>
<g transform="matrix(1.25 0 0 -1.25 0 45)">
	<g>
		<g>
			<path class="st0" d="M409.6-328.1c0-25.1-20.4-45.5-45.5-45.5H45.5C20.4-373.6,0-353.2,0-328.1V-9.5C0,15.6,20.4,36,45.5,36
				h318.6c25.1,0,45.5-20.4,45.5-45.5V-328.1z"/>
			<path class="st1" d="M142.4-70.3c0,14.5,9.9,27.5,27.5,27.5h90.3c15.5,0,23.6-12,23.6-24.3c0-12-7.8-24.3-23.6-24.3h-64.9V-143
				H250c16.9,0,25.4-12,25.4-24c0-12.3-8.5-24.7-25.4-24.7h-54.7v-76.9c0-17.6-11.3-27.5-26.5-27.5c-15.2,0-26.5,9.9-26.5,27.5
				L142.4-70.3L142.4-70.3z"/>
		</g>
	</g>
</g>
</svg>
